<svg width="300" height="149" viewBox="0 0 300 149" fill="none" xmlns="http://www.w3.org/2000/svg">
<path d="M61.7475 97.9725C61.5008 97.9907 61.2515 98 61.0001 98H30.0001C28.3964 98 26.8809 97.6225 25.5375 96.9515C21.1004 95.0103 18.0001 90.5815 18.0001 85.4285C18.0001 78.4855 23.6285 72.8571 30.5715 72.8571C31.3906 72.8571 32.1913 72.9354 32.9667 73.085C32.5229 71.5138 32.2854 69.8561 32.2854 68.1428C32.2854 58.1228 40.4082 50 50.4282 50C59.5711 50 67.1343 56.7629 68.3885 65.5591C66.617 64.9199 64.7066 64.5715 62.7147 64.5715C53.4837 64.5715 46.0005 72.0547 46.0005 81.2857C46.0005 90.1921 52.9666 97.4715 61.7475 97.9725Z" fill="url(#paint0_linear_83_1771)"/>
<circle opacity="0.4" cx="62.7151" cy="81.2857" r="16.7143" fill="url(#paint1_linear_83_1771)"/>
<path fill-rule="evenodd" clip-rule="evenodd" d="M81.2023 96.7586L81.2791 96.6364L102.211 63.3272L102.234 63.2899H102.279H128.908H128.988V63.3697L131.742 66.2277L128.988 69.0866V69.1664H128.908H110.195L111.85 76.8026H128.861H128.94V76.8824V82.6465V82.7263H128.861H113.145L114.922 90.8822H128.908H128.988V90.962V96.6788V96.7586H128.908H109.586H109.521L109.508 96.6957L107.963 89.5298H93.3995L89.147 96.7194L89.1238 96.7586H89.0783H85.2125H81.3467H81.2023ZM106.698 83.6533L104.057 71.5006L96.8545 83.6533H106.698ZM156.185 73.2637V73.1839V67.5124V67.4326H156.281H163.195H163.291V67.5124V73.1839V73.2637H163.195H156.281H156.185ZM156.439 96.8348V96.7551V77.0052V76.9255H156.535H162.94H163.036V77.0052V96.7551V96.8348H162.94H156.535H156.439ZM164.707 96.7593L164.816 96.6286L173.255 86.4497L165.348 76.8817L165.239 76.751H165.409H172.613H172.652L172.676 76.7814L176.886 82.114L181.064 76.7816L181.088 76.751H181.127H188.331H188.5L188.393 76.8817L180.488 86.4466L188.966 96.6284L189.074 96.7593H188.904H181.659H181.621L181.597 96.7294L176.853 90.7999L172.143 96.7291L172.12 96.7593H172.081H164.877H164.707ZM132.166 96.6791V96.7589H132.246H138.627H138.707V96.6791V85.6238C138.707 84.7474 138.888 83.9808 139.247 83.3218C139.606 82.6623 140.102 82.1627 140.736 81.8206L140.737 81.8201C141.4 81.4512 142.175 81.2653 143.065 81.2653C143.76 81.2653 144.322 81.398 144.757 81.6575L144.759 81.6589L144.762 81.6602C145.22 81.8918 145.56 82.2914 145.78 82.8682L145.781 82.8704L145.782 82.8725C146.029 83.4233 146.155 84.1507 146.155 85.059V96.6791V96.7589H146.235H152.617H152.696V96.6791V84.7765C152.696 82.887 152.428 81.3285 151.887 80.1046C151.345 78.8531 150.531 77.9245 149.444 77.3234C148.358 76.6959 146.976 76.3851 145.305 76.3851C143.659 76.3851 142.18 76.751 140.871 77.4845C139.944 77.996 139.18 78.6715 138.58 79.5102V76.8683V76.7886H138.501H132.246H132.166V76.8683L132.166 96.6791Z" fill="#222222"/>
<path fill-rule="evenodd" clip-rule="evenodd" d="M199.902 95.0377C201.891 96.3301 204.291 96.9763 207.104 96.9763C209.206 96.9763 211.109 96.6157 212.814 95.8943C214.547 95.173 216.024 94.106 217.246 92.6934L216.308 91.1155C214.973 92.5281 213.567 93.55 212.09 94.1812C210.612 94.8123 208.936 95.1279 207.061 95.1279C203.396 95.1279 200.57 93.8656 198.581 91.3409C196.621 88.8162 195.641 85.2697 195.641 80.7012C195.641 76.1328 196.621 72.6013 198.581 70.1067C200.57 67.582 203.396 66.3197 207.061 66.3197C208.936 66.3197 210.612 66.6352 212.09 67.2664C213.567 67.8976 214.973 68.9195 216.308 70.3321L217.246 68.7542C216.024 67.3415 214.547 66.2746 212.814 65.5532C211.109 64.8319 209.206 64.4712 207.104 64.4712C204.291 64.4712 201.891 65.1325 199.902 66.4549C197.913 67.7473 196.379 69.6107 195.3 72.0452C194.248 74.4497 193.723 77.335 193.723 80.7012C193.723 84.0675 194.248 86.9678 195.3 89.4023C196.379 91.8368 197.913 93.7153 199.902 95.0377ZM225.203 96.9574C223.644 96.9574 222.431 96.4217 221.565 95.3503C220.724 94.2521 220.303 92.7253 220.303 90.77V68.3105H221.862V90.4888C221.862 91.5602 221.986 92.4709 222.233 93.2209C222.505 93.9441 222.901 94.4932 223.421 94.8682C223.941 95.2164 224.584 95.3905 225.351 95.3905C225.673 95.3905 225.97 95.3771 226.242 95.3503C226.539 95.2967 226.823 95.2298 227.096 95.1494L226.984 96.7164C226.662 96.7967 226.353 96.8503 226.056 96.8771C225.759 96.9306 225.475 96.9574 225.203 96.9574ZM273.905 96.9574C272.268 96.9574 270.832 96.5556 269.598 95.7521C268.389 94.9217 267.445 93.7566 266.765 92.2566C266.11 90.7298 265.783 88.9486 265.783 86.9129C265.783 84.8504 266.11 83.0692 266.765 81.5692C267.42 80.0693 268.352 78.9175 269.56 78.1139C270.794 77.2836 272.242 76.8684 273.905 76.8684C275.667 76.8684 277.166 77.3505 278.4 78.3148C279.302 79.0196 279.982 79.9105 280.44 80.9873V68.3105H282.026V96.636H280.44V92.8227C279.982 93.8905 279.302 94.7866 278.4 95.511C277.166 96.4753 275.667 96.9574 273.905 96.9574ZM273.942 95.3905C275.957 95.3905 277.543 94.6539 278.702 93.1807C279.886 91.6807 280.477 89.5914 280.477 86.9129C280.477 84.2344 279.886 82.1585 278.702 80.6853C277.543 79.1853 275.957 78.4354 273.942 78.4354C271.953 78.4354 270.366 79.1853 269.183 80.6853C267.999 82.1585 267.407 84.2344 267.407 86.9129C267.407 89.5914 267.999 91.6807 269.183 93.1807C270.366 94.6539 271.953 95.3905 273.942 95.3905ZM254.923 96.9574C253.464 96.9574 252.249 96.6759 251.276 96.1129C250.304 95.5498 249.574 94.7187 249.088 93.6194C248.602 92.5201 248.359 91.1527 248.359 89.5172V77.1704H249.971V89.3563C249.971 90.7237 250.137 91.8632 250.47 92.7748C250.828 93.6596 251.379 94.3165 252.121 94.7455C252.863 95.1745 253.797 95.389 254.923 95.389C256.177 95.389 257.264 95.094 258.186 94.5042C259.132 93.9143 259.874 93.0965 260.412 92.0509C260.949 90.9784 261.218 89.7317 261.218 88.3107V77.1704H262.83V96.6357H261.256V93.0186C260.754 94.1076 260.05 94.9782 259.145 95.6303C257.917 96.515 256.509 96.9574 254.923 96.9574ZM232.733 95.7124C233.984 96.5424 235.451 96.9575 237.136 96.9575C238.82 96.9575 240.275 96.5424 241.5 95.7124C242.751 94.8823 243.708 93.7175 244.371 92.218C245.06 90.7186 245.405 88.9513 245.405 86.9163C245.405 84.8813 245.06 83.114 244.371 81.6145C243.708 80.1151 242.751 78.9503 241.5 78.1202C240.275 77.2901 238.82 76.8751 237.136 76.8751C235.451 76.8751 233.984 77.2901 232.733 78.1202C231.508 78.9503 230.551 80.1151 229.862 81.6145C229.198 83.114 228.867 84.8813 228.867 86.9163C228.867 88.9513 229.198 90.7186 229.862 92.218C230.551 93.7175 231.508 94.8823 232.733 95.7124ZM241.959 93.182C240.785 94.6547 239.178 95.3911 237.136 95.3911C235.12 95.3911 233.512 94.6547 232.312 93.182C231.113 91.6825 230.513 89.5939 230.513 86.9163C230.513 84.2386 231.113 82.1635 232.312 80.6907C233.512 79.1913 235.12 78.4415 237.136 78.4415C239.178 78.4415 240.785 79.1913 241.959 80.6907C243.159 82.1635 243.759 84.2386 243.759 86.9163C243.759 89.5939 243.159 91.6825 241.959 93.182Z" fill="#222222"/>
<path d="M61.7475 97.9725C61.5007 97.9907 61.2515 98 61.0001 98H30.0001C28.3963 98 26.8808 97.6225 25.5374 96.9515C21.1004 95.0103 18.0001 90.5815 18.0001 85.4285C18.0001 78.4855 23.6285 72.8571 30.5715 72.8571C31.3905 72.8571 32.1913 72.9354 32.9666 73.085C32.5228 71.5138 32.2853 69.8561 32.2853 68.1428C32.2853 58.1228 40.4082 50 50.4282 50C59.571 50 67.1343 56.7629 68.3884 65.5591C66.617 64.9199 64.7065 64.5715 62.7147 64.5715C53.4836 64.5715 46.0004 72.0547 46.0004 81.2857C46.0004 90.1921 52.9665 97.4715 61.7475 97.9725Z" fill="url(#paint2_linear_83_1771)"/>
<circle opacity="0.4" cx="62.7151" cy="81.2857" r="16.7143" fill="url(#paint3_linear_83_1771)"/>
<path fill-rule="evenodd" clip-rule="evenodd" d="M81.2022 96.7586L81.2791 96.6364L102.211 63.3272L102.234 63.2899H102.278H128.908H128.987V63.3697L131.742 66.2277L128.987 69.0866V69.1664H128.908H110.195L111.85 76.8026H128.861H128.94V76.8824V82.6465V82.7263H128.861H113.145L114.922 90.8822H128.908H128.987V90.962V96.6788V96.7586H128.908H109.586H109.521L109.508 96.6957L107.963 89.5298H93.3995L89.1469 96.7194L89.1238 96.7586H89.0782H85.2124H81.3466H81.2022ZM106.698 83.6533L104.057 71.5006L96.8545 83.6533H106.698ZM156.185 73.2637V73.1839V67.5124V67.4326H156.281H163.195H163.291V67.5124V73.1839V73.2637H163.195H156.281H156.185ZM156.439 96.8348V96.7551V77.0052V76.9255H156.535H162.94H163.036V77.0052V96.7551V96.8348H162.94H156.535H156.439ZM164.707 96.7593L164.815 96.6286L173.255 86.4497L165.348 76.8817L165.239 76.751H165.409H172.613H172.652L172.676 76.7814L176.886 82.114L181.064 76.7816L181.088 76.751H181.127H188.331H188.5L188.393 76.8817L180.488 86.4466L188.966 96.6284L189.074 96.7593H188.904H181.659H181.621L181.597 96.7294L176.853 90.7999L172.143 96.7291L172.119 96.7593H172.081H164.877H164.707ZM132.166 96.6791V96.7589H132.246H138.627H138.707V96.6791V85.6238C138.707 84.7474 138.888 83.9808 139.247 83.3218C139.606 82.6623 140.102 82.1627 140.736 81.8206L140.737 81.8201C141.4 81.4512 142.175 81.2653 143.065 81.2653C143.76 81.2653 144.322 81.398 144.757 81.6575L144.759 81.6589L144.762 81.6602C145.22 81.8918 145.56 82.2914 145.78 82.8682L145.781 82.8704L145.782 82.8725C146.029 83.4233 146.155 84.1507 146.155 85.059V96.6791V96.7589H146.235H152.617H152.696V96.6791V84.7765C152.696 82.887 152.428 81.3285 151.887 80.1046C151.345 78.8531 150.531 77.9245 149.444 77.3234C148.358 76.6959 146.976 76.3851 145.305 76.3851C143.659 76.3851 142.18 76.751 140.871 77.4845C139.944 77.996 139.18 78.6715 138.58 79.5102V76.8683V76.7886H138.501H132.246H132.166V76.8683L132.166 96.6791Z" fill="#222222"/>
<path fill-rule="evenodd" clip-rule="evenodd" d="M199.902 95.0377C201.891 96.3301 204.291 96.9763 207.104 96.9763C209.206 96.9763 211.109 96.6157 212.814 95.8943C214.547 95.173 216.024 94.106 217.246 92.6934L216.308 91.1155C214.973 92.5281 213.567 93.55 212.089 94.1812C210.612 94.8123 208.936 95.1279 207.061 95.1279C203.396 95.1279 200.569 93.8656 198.581 91.3409C196.621 88.8162 195.64 85.2697 195.64 80.7012C195.64 76.1328 196.621 72.6013 198.581 70.1067C200.569 67.582 203.396 66.3197 207.061 66.3197C208.936 66.3197 210.612 66.6352 212.089 67.2664C213.567 67.8976 214.973 68.9195 216.308 70.3321L217.246 68.7542C216.024 67.3415 214.547 66.2746 212.814 65.5532C211.109 64.8319 209.206 64.4712 207.104 64.4712C204.291 64.4712 201.891 65.1325 199.902 66.4549C197.913 67.7473 196.379 69.6107 195.3 72.0452C194.248 74.4497 193.723 77.335 193.723 80.7012C193.723 84.0675 194.248 86.9678 195.3 89.4023C196.379 91.8368 197.913 93.7153 199.902 95.0377ZM225.202 96.9574C223.644 96.9574 222.431 96.4217 221.565 95.3503C220.724 94.2521 220.303 92.7253 220.303 90.77V68.3105H221.862V90.4888C221.862 91.5602 221.986 92.4709 222.233 93.2209C222.505 93.9441 222.901 94.4932 223.421 94.8682C223.94 95.2164 224.584 95.3905 225.351 95.3905C225.673 95.3905 225.97 95.3771 226.242 95.3503C226.539 95.2967 226.823 95.2298 227.095 95.1494L226.984 96.7164C226.662 96.7967 226.353 96.8503 226.056 96.8771C225.759 96.9306 225.475 96.9574 225.202 96.9574ZM273.904 96.9574C272.268 96.9574 270.832 96.5556 269.598 95.7521C268.389 94.9217 267.445 93.7566 266.765 92.2566C266.11 90.7298 265.783 88.9486 265.783 86.9129C265.783 84.8504 266.11 83.0692 266.765 81.5692C267.42 80.0693 268.352 78.9175 269.56 78.1139C270.794 77.2836 272.242 76.8684 273.904 76.8684C275.667 76.8684 277.166 77.3505 278.4 78.3148C279.302 79.0196 279.982 79.9105 280.439 80.9873V68.3105H282.026V96.636H280.439V92.8227C279.982 93.8905 279.302 94.7866 278.4 95.511C277.166 96.4753 275.667 96.9574 273.904 96.9574ZM273.942 95.3905C275.957 95.3905 277.543 94.6539 278.702 93.1807C279.885 91.6807 280.477 89.5914 280.477 86.9129C280.477 84.2344 279.885 82.1585 278.702 80.6853C277.543 79.1853 275.957 78.4354 273.942 78.4354C271.953 78.4354 270.366 79.1853 269.183 80.6853C267.999 82.1585 267.407 84.2344 267.407 86.9129C267.407 89.5914 267.999 91.6807 269.183 93.1807C270.366 94.6539 271.953 95.3905 273.942 95.3905ZM254.923 96.9574C253.464 96.9574 252.249 96.6759 251.276 96.1129C250.304 95.5498 249.574 94.7187 249.088 93.6194C248.602 92.5201 248.359 91.1527 248.359 89.5172V77.1704H249.971V89.3563C249.971 90.7237 250.137 91.8632 250.47 92.7748C250.828 93.6596 251.379 94.3165 252.121 94.7455C252.863 95.1745 253.797 95.389 254.923 95.389C256.177 95.389 257.264 95.094 258.185 94.5042C259.132 93.9143 259.874 93.0965 260.412 92.0509C260.949 90.9784 261.218 89.7317 261.218 88.3107V77.1704H262.83V96.6357H261.256V93.0186C260.754 94.1076 260.05 94.9782 259.145 95.6303C257.917 96.515 256.509 96.9574 254.923 96.9574ZM232.733 95.7124C233.984 96.5424 235.451 96.9575 237.136 96.9575C238.82 96.9575 240.275 96.5424 241.5 95.7124C242.751 94.8823 243.708 93.7175 244.371 92.218C245.06 90.7186 245.405 88.9513 245.405 86.9163C245.405 84.8813 245.06 83.114 244.371 81.6145C243.708 80.1151 242.751 78.9503 241.5 78.1202C240.275 77.2901 238.82 76.8751 237.136 76.8751C235.451 76.8751 233.984 77.2901 232.733 78.1202C231.508 78.9503 230.551 80.1151 229.862 81.6145C229.198 83.114 228.866 84.8813 228.866 86.9163C228.866 88.9513 229.198 90.7186 229.862 92.218C230.551 93.7175 231.508 94.8823 232.733 95.7124ZM241.959 93.182C240.785 94.6547 239.177 95.3911 237.136 95.3911C235.119 95.3911 233.512 94.6547 232.312 93.182C231.112 91.6825 230.513 89.5939 230.513 86.9163C230.513 84.2386 231.112 82.1635 232.312 80.6907C233.512 79.1913 235.119 78.4415 237.136 78.4415C239.177 78.4415 240.785 79.1913 241.959 80.6907C243.159 82.1635 243.759 84.2386 243.759 86.9163C243.759 89.5939 243.159 91.6825 241.959 93.182Z" fill="#222222"/>
<defs>
<linearGradient id="paint0_linear_83_1771" x1="49.7141" y1="94.8571" x2="34.2854" y2="58.1429" gradientUnits="userSpaceOnUse">
<stop stop-color="#09A5FE"/>
<stop offset="1" stop-color="#00CCFF"/>
</linearGradient>
<linearGradient id="paint1_linear_83_1771" x1="54.2231" y1="63.6132" x2="67.5634" y2="68.0906" gradientUnits="userSpaceOnUse">
<stop stop-color="#00A3FF"/>
<stop offset="1" stop-color="#00CCFF"/>
</linearGradient>
<linearGradient id="paint2_linear_83_1771" x1="49.714" y1="94.8571" x2="34.2854" y2="58.1429" gradientUnits="userSpaceOnUse">
<stop stop-color="#09A5FE"/>
<stop offset="1" stop-color="#00CCFF"/>
</linearGradient>
<linearGradient id="paint3_linear_83_1771" x1="54.2231" y1="63.6132" x2="67.5633" y2="68.0906" gradientUnits="userSpaceOnUse">
<stop stop-color="#00A3FF"/>
<stop offset="1" stop-color="#00CCFF"/>
</linearGradient>
</defs>
</svg>
